<?xml version="1.0" encoding="UTF-8" standalone="no"?>
<svg
   width="1337.1815"
   height="1337.1815"
   version="1.1"
   id="svg162"
   sodipodi:docname="icon.svg"
   inkscape:version="1.1.2 (0a00cf5339, 2022-02-04)"
   xmlns:inkscape="http://www.inkscape.org/namespaces/inkscape"
   xmlns:sodipodi="http://sodipodi.sourceforge.net/DTD/sodipodi-0.dtd"
   xmlns:xlink="http://www.w3.org/1999/xlink"
   xmlns="http://www.w3.org/2000/svg"
   xmlns:svg="http://www.w3.org/2000/svg">
  <sodipodi:namedview
     id="namedview164"
     pagecolor="#ffffff"
     bordercolor="#666666"
     borderopacity="1.0"
     inkscape:pageshadow="2"
     inkscape:pageopacity="0.0"
     inkscape:pagecheckerboard="0"
     showgrid="false"
     width="1337.1815px"
     inkscape:zoom="0.42191063"
     inkscape:cx="765.56498"
     inkscape:cy="500.10591"
     inkscape:window-width="1862"
     inkscape:window-height="1016"
     inkscape:window-x="58"
     inkscape:window-y="27"
     inkscape:window-maximized="1"
     inkscape:current-layer="svg162" />
  <defs
     id="defs138">
    <clipPath
       id="A">
      <path
         d="M 0,1224 H 1224 V 0 H 0"
         clip-rule="evenodd"
         id="path129" />
    </clipPath>
    <clipPath
       id="B">
      <path
         d="M 0,1224 H 1224 V 0 H 0"
         clip-rule="evenodd"
         id="path132" />
    </clipPath>
    <path
       id="C"
       d="m 380.85,770.61 c -17.956,-44.725 -41.015,-88.79 -76.12,-122.53 -26.116,-25.239 -60.11,-42.456 -96.169,-47.379 -35.544,-3.397 -70.683,12.161 -96.7,35.715 -20.346,18.402 -35.519,42.293 -44.153,68.293 30.037,-21.685 66.025,-36.33 103.402,-36.885 27.004,-0.875 53.405,5.838 79.511,11.841 27.749,6.579 53.699,19.752 75.864,37.631 19.931,15.802 37.647,34.201 54.365,53.313 z" />
    <path
       id="D"
       d="m 154.17,755.37 c -0.16,20.872 9.993,43.608 29.916,52.357 14.681,6.649 32.625,1.368 42.944,-10.572 20.868,-23.265 20.371,-62.899 -1.631,-85.259 -10.881,-11.436 -29.145,-15.435 -43.336,-7.953 -18.685,9.45 -27.979,31.269 -27.893,51.427 z" />
    <path
       id="E"
       d="m 87.57,451.5 c -0.307,39.85 18.676,79.16 49.867,103.912 31.123,25.376 74.019,35.173 113.121,26.207 41.959,-9.103 78.353,-39.893 94.377,-79.712 6.542,-15.944 9.891,-33.176 9.875,-50.407 h -66.67 c 0.364,26.269 -16.615,51.536 -40.892,61.439 -24.153,10.482 -54.172,4.889 -72.825,-13.729 -12.795,-12.322 -20.289,-29.936 -20.183,-47.71 z" />
  </defs>
  <g
     transform="matrix(1.0926478,0,0,-1.0168274,14.523631,1329.1062)"
     id="g160">
    <path
       d="m 518.53,713.27 c 2.235,-10.822 -6.058,-18.544 -15.849,-21.04 -21.152,-7.687 -48.666,-5.42 -63.695,12.966 -14.33,18.371 -14.826,43.704 -10.983,65.702 3.546,19.553 17.535,37.843 37.469,42.472 16.358,4.258 35.283,2.748 48.998,-7.819 5.301,-7.131 4.761,-18.872 0.827,-26.546 -8.542,-1.538 -14.665,9.523 -23.67,9.985 -11.031,2.841 -24.11,-1.691 -28.525,-12.797 -5.816,-14.187 -5.664,-30.694 -1.251,-45.245 3.146,-11.135 14.897,-17.763 26.104,-16.034 9.548,0.505 17.269,6.75 24.676,12.079 7.416,2.762 5.231,-10.104 5.899,-13.721 z M 654.87,753 c 0.444,-21.805 -7.696,-46.016 -27.868,-56.982 -18.299,-9.904 -40.983,-10.25 -60.482,-3.828 -17.685,5.879 -29.245,23.084 -31.618,41.09 -3.753,23.725 -0.805,51.696 18.211,68.511 17.938,15.342 44.08,16.648 66.02,10.756 17.848,-4.75 30.699,-20.943 33.742,-38.817 1.443,-6.807 1.993,-13.78 1.995,-20.73 z m -32.88,-1.27 c 0.122,13.703 -2.436,31.518 -17.083,37.075 -12.359,4.469 -28.7,0.381 -33.989,-12.626 -6.25,-14.895 -5.946,-32.427 -0.716,-47.577 5.42,-15.967 27.399,-19.354 40.036,-10.198 9.967,7.746 11.638,21.577 11.753,33.327 z M 787.5,695.24 c -4.304,-8.055 -18.171,-5.444 -25.798,-3.097 -2.822,3.639 -0.949,8.854 -1.492,13.219 0.586,7.176 -7.19,-6.36 -10.668,-6.866 -16.202,-13.513 -42.977,-14.843 -58.357,0.599 -13.639,14.681 -11.535,35.605 -11.715,54.123 l 0.178,56.445 c 7.927,6.142 21.939,5.004 30.923,1.028 1.633,-5.5 0.373,-11.634 0.77,-17.402 0.202,-19.42 -0.459,-38.87 0.445,-58.266 0.205,-11.092 10.087,-21.599 21.644,-18.944 9.491,2.248 16.973,10.157 22.341,17.685 l 0.173,75.9 c 7.626,6.296 20.591,4.286 29.783,1.905 3.265,-3.214 1.187,-8.476 1.775,-12.657 V 695.24 Z m 104.85,102.7 c 1.266,-7.599 -1.337,-19.832 -11.256,-13.095 -11.705,4.224 -21.109,-6.319 -26.891,-15.089 -4.303,-4.211 -2.049,-10.404 -2.603,-15.744 l -0.192,-59.964 c -8.044,-6.125 -21.999,-5.023 -31.038,-1.028 -1.619,5.692 -0.364,12.01 -0.76,17.965 l 0.158,98.678 c 6.337,5.914 19.164,5.169 26.503,1.028 1.33,-5.231 0.31,-10.895 0.63,-16.31 7.565,11.091 18.727,23.518 33.64,21.14 11.785,0.757 12.42,-8.378 11.81,-17.58 z m 96.2,-70.71 c 0.873,-16.666 -11.298,-31.907 -27.234,-36.093 -18.152,-5.28 -39.005,-4.318 -55.495,5.394 -4.776,6.109 -6.442,20.637 0.469,24.989 9.952,-4.09 19.668,-10.439 30.929,-10.264 9.825,-1.625 23.627,5.271 19.641,16.974 -5.553,10.172 -18.588,11.172 -28.052,16.05 -12.544,4.796 -24.541,14.841 -25.746,29.065 -2.842,16.096 6.901,32.907 22.398,38.231 16.615,6.262 36.055,5.515 52.027,-2.245 6.67,-4.757 7.005,-20.198 0.903,-24.601 -10.803,4.773 -22.415,10.346 -34.645,7.882 -10.36,-0.341 -15.323,-15.322 -5.719,-20.67 14.381,-8.983 33.867,-10.299 44.5,-24.882 4.223,-5.693 6.153,-12.788 6.024,-19.831 z m 128.62,27.93 c 1.26,-8.809 -7.44,-12.685 -14.841,-11.43 h -63.869 c -0.497,-11.853 4.486,-25.631 16.82,-29.45 16.668,-5.078 34.474,-0.677 50.309,5.285 9.869,0.453 6.848,-16.756 3.641,-22.545 -13.471,-7.308 -29.467,-8.833 -44.583,-9.005 -19.066,-0.123 -40.446,6.42 -50.22,24.108 -9.945,18.485 -10.178,40.924 -5.862,61.043 4.224,19.554 19.451,36.741 39.406,40.81 20.536,4.487 45.778,1.162 58.938,-16.956 8.83,-11.966 10.607,-27.407 10.261,-41.86 z m -30.98,9.14 c 0.845,11.3 -3.781,25.569 -16.305,28.06 -11.483,3.276 -24.913,-2.603 -28.702,-14.284 -1.164,-4.775 -6.508,-16.078 2.338,-13.776 z"
       fill="#123456"
       id="path140" />
    <g
       clip-path="url(#A)"
       id="g144">
      <use
         xlink:href="#C"
         fill="#2e75b6"
         fill-rule="evenodd"
         id="use142"
         x="0"
         y="0"
         width="100%"
         height="100%" />
    </g>
    <g
       clip-path="url(#B)"
       id="g148">
      <use
         xlink:href="#C"
         fill="none"
         stroke="#41719c"
         stroke-miterlimit="10"
         id="use146"
         x="0"
         y="0"
         width="100%"
         height="100%" />
    </g>
    <use
       xlink:href="#D"
       fill="#2e75b6"
       fill-rule="evenodd"
       id="use150"
       x="0"
       y="0"
       width="100%"
       height="100%" />
    <use
       xlink:href="#D"
       fill="none"
       stroke="#41719c"
       stroke-width="1.02"
       stroke-miterlimit="10"
       id="use152"
       x="0"
       y="0"
       width="100%"
       height="100%" />
    <use
       xlink:href="#E"
       fill="#0070c0"
       fill-rule="evenodd"
       id="use154"
       x="0"
       y="0"
       width="100%"
       height="100%" />
    <use
       xlink:href="#E"
       fill="none"
       stroke="#41719c"
       stroke-width="1.02"
       stroke-miterlimit="10"
       id="use156"
       x="0"
       y="0"
       width="100%"
       height="100%" />
    <path
       d="m 517.46,628.47 c 1.462,-7.609 -2.365,-16.557 -10.942,-10.53 -10.155,4.081 -22.846,-2.052 -22.079,-14.068 -0.561,-6.077 -0.244,-12.188 -0.328,-18.282 8.015,-0.111 16.062,0.226 24.056,-0.174 6.562,-6.472 5.461,-19.897 1.134,-27.591 -5.757,-1.746 -12.197,-0.403 -18.243,-0.825 -3.654,-0.035 -8.642,1.264 -6.947,-4.12 v -97.05 c -4.852,-9.04 -19.016,-4.698 -27.759,-5.055 -7.509,-0.531 -8.011,6.625 -7.411,12.119 V 557 c -5.642,0.129 -11.327,-0.263 -16.941,0.206 -6.189,6.805 -5.353,19.957 -1.059,27.684 5.771,1.473 12.024,0.347 18,0.7 -0.098,17.921 -0.719,38.448 13.324,51.821 13.569,11.496 33.706,12.055 49.905,6.444 6.138,-2.219 4.896,-10.26 5.292,-15.384 z m 50.71,-172.64 c -4.902,-9 -19.042,-4.722 -27.807,-5.055 -7.478,-0.491 -8.154,6.583 -7.503,12.119 V 580.54 c 4.832,9.113 19.021,5.209 27.797,5.238 7.452,0.29 8.175,-6.723 7.513,-12.301 z m 2.66,167.31 c 1.67,-10.716 -6.707,-19.997 -17.632,-18.707 -9.357,-0.928 -22.887,1.192 -22.749,13.287 -1.598,9.674 1.221,23.339 13.504,23.236 8.553,0.542 20.93,1.886 25.236,-7.464 1.325,-3.273 1.625,-6.854 1.641,-10.352 z M 722.74,455.83 c -4.849,-9.051 -19.022,-4.686 -27.755,-5.055 -7.442,-0.47 -8.041,6.632 -7.415,12.119 l -0.331,72.39 c -0.35,10.764 -7.363,22.939 -19.378,22.805 -12.685,0.437 -21.794,-10.221 -29.191,-19.159 v -83.1 c -4.902,-9 -19.042,-4.722 -27.807,-5.055 -7.478,-0.491 -8.154,6.583 -7.503,12.119 V 580.82 c 4.773,8.833 20.089,6.057 28.494,3.421 3.064,-4.05 1.041,-9.778 1.626,-14.605 -0.594,-7.784 7.92,6.958 11.782,7.592 17.334,14.42 45.474,16.28 62.803,0.951 15.165,-14.135 14.866,-36.003 14.675,-55.146 z m 153.18,0 c -4.383,-9.068 -19.754,-5.859 -28.058,-3.555 -3.285,3.783 -1.186,9.47 -1.783,14.15 0.707,7.775 -7.464,-6.28 -11.169,-6.924 -19.571,-16.544 -52.766,-16.03 -69.494,4.346 -15.329,19.037 -16.449,45.318 -14.294,68.633 2.173,21.03 11.949,44.087 32.823,52.471 16.583,6.812 36.991,4.907 50.621,-7.314 4.655,-4.843 7.494,-6.992 6.324,0.837 l 0.194,62.533 c 6.897,7.448 19.656,4.282 28.885,3.768 7.15,-0.395 5.992,-7.756 5.951,-12.747 z m -35.03,83.52 c -8.172,10.204 -19.41,22.311 -33.887,19.129 -14.852,-3.461 -19.694,-20.595 -20.697,-33.93 -0.485,-14.975 0.194,-33.132 12.823,-43.359 11.369,-7.837 26.452,-1.575 34.449,8.211 4.557,4.28 8.74,8.955 7.311,15.533 v 34.416 z m 185.97,-17.38 c 1.326,-9.143 -7.535,-14.057 -15.499,-12.61 H 939.98 c -0.564,-13.09 4.954,-28.296 18.57,-32.51 18.884,-5.872 38.836,-0.241 56.811,6.086 9.309,-1.753 5.615,-17.377 3.564,-24.146 -8.492,-6.733 -20.215,-7.715 -30.595,-9.75 -23.503,-2.965 -51.291,-1.553 -68.583,16.846 -15.953,18.008 -17.131,44.129 -14.55,66.89 2.59,22.055 15.785,44.071 37.467,51.728 20.077,6.89 44.182,6.302 62.18,-5.835 18.272,-12.471 22.8,-35.99 22.018,-56.699 z m -34.19,10.09 c 0.921,12.473 -4.179,28.222 -18.001,30.981 -12.152,3.388 -26.492,-2.253 -31.127,-14.435 -1.116,-4.859 -8.182,-18.454 1.147,-16.546 z m 143.5,37.13 c 1.372,-8.397 -1.454,-21.872 -12.419,-14.45 -12.208,4.478 -22.568,-6.048 -28.763,-15.324 -4.458,-3.845 -3.935,-9.255 -3.799,-14.506 l -0.21,-70.392 c -7.279,-7.004 -19.707,-3.767 -29.029,-3.504 -7.262,0.094 -6.133,7.492 -6.071,12.467 V 580.82 c 4.774,8.833 20.09,6.057 28.494,3.421 3.064,-4.05 1.041,-9.778 1.626,-14.605 -1.104,-10.323 6.486,6.755 10.331,8.304 8.994,10.627 25.213,14.262 37.53,7.51 3.351,-4.511 1.823,-11.005 2.31,-16.26 z"
       fill="#2e75b6"
       id="path158" />
  </g>
</svg>
